{"title":"David Attenborough's The Hunt - S01E04 - Hunger At Sea","uid":15235182,"size":1197957484,"categoryP":"video","categoryS":"tv_shows","magnet":"?xt=urn:btih:dab69671465f280bc5c925171be9d39e671599e0&amp;dn=David+Attenborough%27s+The+Hunt+-+S01E04+-+Hunger+At+Sea&amp;tr=udp%3A%2F%2Ftracker.leechers-paradise.org%3A6969&amp;tr=udp%3A%2F%2Fzer0day.ch%3A1337&amp;tr=udp%3A%2F%2Fopen.demonii.com%3A1337&amp;tr=udp%3A%2F%2Ftracker.coppersurfer.tk%3A6969&amp;tr=udp%3A%2F%2Fexodus.desync.com%3A6969","seeders":8,"leechers":0,"uploader":"Bullrout","files":1,"time":1467874431,"description":"David Attenborough's The Hunt - S01E04 - Hunger At Sea\r\n\r\nWe follow blue whales, sharks, sea lions, frigate birds, dolphins and albatrosses to reveal the strategies they use to hunt for prey in the big blue.\r\n\r\nComplete name : David Attenborough's The Hunt - S01E04 - Hunger At Sea.mkv\r\nFormat : Matroska\r\nFormat version : Version 4 / Version 2\r\nFile size : 1.12 GiB\r\nDuration : 47mn 39s\r\nOverall bit rate mode : Variable\r\nOverall bit rate : 3 352 Kbps\r\nEncoded date : UTC 2016-07-06 12:02:45\r\nWriting application : mkvmerge v9.2.0 ('Photograph') 64bit\r\nWriting library : libebml v1.3.3 + libmatroska v1.4.4\r\n\r\nVideo\r\nID : 2\r\nFormat : AVC\r\nFormat/Info : Advanced Video Codec\r\nFormat profile :   \r\nFormat settings, CABAC : Yes\r\nFormat settings, ReFrames : 3 frames\r\nCodec ID : V_MPEG4/ISO/AVC\r\nDuration : 47mn 39s\r\nBit rate mode : Variable\r\nBit rate : 2 966 Kbps\r\nMaximum bit rate : 3 000 Kbps\r\nWidth : 1 280 pixels\r\nHeight : 720 pixels\r\nDisplay aspect ratio : 16:9\r\nFrame rate mode : Constant\r\nFrame rate : 25.000 fps\r\nStandard : PAL\r\nColor space : YUV\r\nChroma subsampling : 4:2:0\r\nBit depth : 8 bits\r\nScan type : Progressive\r\nBits/(Pixel*Frame) : 0.129\r\nStream size : 1 011 MiB (88%)\r\nWriting library : x264 core 112\r\nDefault : Yes\r\nForced : No\r\nColor range : Limited\r\nColor primaries : BT.709\r\nTransfer characteristics : BT.709\r\nMatrix coefficients : BT.709\r\n\r\nAudio\r\nID : 1\r\nFormat : AC-3\r\nFormat/Info : Audio Coding 3\r\nMode extension : CM (complete main)\r\nFormat settings, Endianness : Big\r\nCodec ID : A_AC3\r\nDuration : 47mn 39s\r\nBit rate mode : Constant\r\nBit rate : 384 Kbps\r\nChannel(s) : 6 channels\r\nChannel positions : Front: L C R, Side: L R, LFE\r\nSampling rate : 48.0 KHz\r\nFrame rate : 31.250 fps (1536 spf)\r\nCompression mode : Lossy\r\nStream size : 131 MiB (11%)\r\nDefault : Yes\r\nForced : No","torrent":{"xt":"urn:btih:dab69671465f280bc5c925171be9d39e671599e0","amp;dn":"David+Attenborough%27s+The+Hunt+-+S01E04+-+Hunger+At+Sea","amp;tr":["udp%3A%2F%2Ftracker.leechers-paradise.org%3A6969","udp%3A%2F%2Fzer0day.ch%3A1337","udp%3A%2F%2Fopen.demonii.com%3A1337","udp%3A%2F%2Ftracker.coppersurfer.tk%3A6969","udp%3A%2F%2Fexodus.desync.com%3A6969"],"infoHash":"dab69671465f280bc5c925171be9d39e671599e0","infoHashBuffer":{"type":"Buffer","data":[218,182,150,113,70,95,40,11,197,201,37,23,27,233,211,158,103,21,153,224]},"announce":[],"urlList":[]}}